# Blender 5.0.1
# www.blender.org
mtllib zero_brazoIzq.mtl
o Brazo_izq_disparo.001
v 0.114331 -0.042749 0.001798
v 0.124139 -0.035372 0.001771
v 0.101306 -0.034347 0.073036
v 0.093447 -0.041972 0.066903
v 0.110392 -0.236872 0.096833
v 0.132746 -0.236777 0.016196
v 0.120274 -0.219274 0.005403
v 0.100646 -0.219267 0.074916
v 0.093014 -0.041954 -0.063012
v 0.100929 -0.034327 -0.069197
v -0.083514 -0.035379 0.066903
v -0.088514 -0.218451 0.077898
v -0.030504 -0.218451 0.120038
v -0.028831 -0.037417 0.107136
v 0.043352 0.003721 0.131791
v -0.104401 -0.034602 0.001798
v -0.114873 -0.024719 0.001771
v -0.092041 -0.025729 -0.069467
v -0.083514 -0.035379 -0.063334
v -0.125496 0.015723 0.001746
v -0.092041 -0.025729 0.073036
v -0.101883 0.014168 0.078913
v -0.038788 -0.238079 -0.112102
v -0.102708 -0.238074 -0.064842
v -0.088619 -0.218421 -0.067117
v -0.030606 -0.218421 -0.109254
v -0.103606 -0.345719 -0.049814
v -0.127744 -0.345516 0.032073
v -0.129769 -0.236986 0.020303
v 0.112744 -0.002089 0.083996
v 0.140034 -0.004389 0.001668
v -0.106649 -0.237076 0.096523
v -0.044086 -0.237169 0.147298
v -0.028668 -0.037424 -0.103054
v -0.027649 -0.171457 -0.100097
v -0.084218 -0.171254 -0.058987
v 0.098639 -0.172411 -0.058909
v 0.042146 -0.171986 -0.104212
v 0.038599 -0.039929 -0.103054
v 0.043119 0.004183 -0.127167
v -0.038318 0.009881 0.128661
v -0.032301 -0.028382 0.117058
v 0.041566 -0.031672 0.117058
v 0.040302 -0.345641 -0.121204
v -0.041364 -0.345684 -0.097259
v 0.041739 -0.238047 -0.124372
v 0.107899 -0.237774 -0.065322
v 0.135469 -0.345311 0.028683
v 0.108524 -0.345596 -0.051027
v -0.110689 -0.218451 0.009701
v 0.099129 -0.219119 -0.067092
v 0.038761 -0.039934 0.107136
v 0.041091 -0.218812 -0.114787
v -0.032139 -0.028389 -0.113032
v 0.041404 -0.031664 -0.113032
v 0.112106 -0.001784 -0.080097
v -0.101304 0.014411 -0.075062
v -0.037786 0.010228 -0.124084
v 0.113041 -0.344879 0.111066
v 0.041341 -0.237024 0.149253
v -0.046986 -0.344654 0.160883
v 0.043224 -0.344851 0.163941
v 0.040449 -0.218789 0.120758
v -0.106471 -0.345084 0.107263
vn -0.4748 0.8091 0.3463
vn -0.7023 0.7118 -0.0128
vn -0.4725 0.8139 0.3380
vn 0.8185 0.5743 -0.0164
vn 0.7907 0.3337 -0.5133
vn 0.7915 0.3321 -0.5130
vn 0.3158 0.0730 0.9460
vn -0.3142 0.0723 0.9466
vn 0.3167 0.0727 0.9457
vn 0.5386 0.7566 0.3707
vn 0.8211 0.5705 -0.0163
vn 0.1780 0.8298 0.5289
vn -0.1751 0.8473 0.5014
vn -0.1748 0.8512 0.4949
vn -0.6617 -0.4542 -0.5965
vn -0.6856 -0.7280 0.0003
vn -0.9247 -0.3807 -0.0023
vn -0.5606 -0.7369 0.3778
vn -0.3152 -0.4417 0.8400
vn -0.7570 -0.4011 0.5159
vn -0.3549 0.0490 -0.9336
vn 0.3051 0.0049 -0.9523
vn 0.3066 0.0611 -0.9499
vn 0.7181 -0.4273 0.5493
vn 0.2346 -0.4909 0.8391
vn 0.6752 -0.5305 0.5125
vn 0.2944 -0.0838 -0.9520
vn 0.8439 -0.0473 -0.5344
vn 0.8486 -0.0561 -0.5260
vn -0.7479 0.1800 -0.6389
vn -0.3379 0.2006 -0.9196
vn -0.7976 -0.2586 -0.5449
vn -0.1885 -0.4890 -0.8517
vn -0.5594 -0.7371 -0.3792
vn -0.8107 0.0577 0.5826
vn -0.9990 0.0408 -0.0162
vn -0.8089 0.0566 0.5852
vn -0.4029 -0.0840 -0.9114
vn -0.4396 -0.1136 -0.8910
vn -0.2340 -0.7588 0.6078
vn 0.4816 -0.7943 0.3703
vn 0.8391 -0.5440 -0.0027
vn 0.2859 0.4047 -0.8686
vn -0.9997 -0.0158 -0.0171
vn -0.8302 0.0500 0.5552
vn -0.9997 -0.0153 -0.0175
vn 0.8945 -0.4470 -0.0040
vn -0.3115 0.0711 0.9476
vn 0.3010 0.1314 0.9445
vn -0.3402 0.1179 0.9329
vn -0.3565 0.1271 0.9256
vn 0.7088 -0.5739 -0.4101
vn 0.1633 -0.7821 -0.6013
vn 0.2357 -0.4798 -0.8451
vn 0.7667 0.1232 -0.6301
vn 0.8190 0.0388 -0.5725
vn -0.3369 -0.2960 -0.8938
vn -0.9995 0.0262 0.0165
vn -0.8260 0.0992 -0.5549
vn 0.8237 0.0255 -0.5664
vn 0.8123 0.0562 0.5805
vn 0.9991 0.0417 -0.0061
vn -0.2311 -0.7604 -0.6069
vn 0.2453 -0.3544 -0.9024
vn 0.7184 -0.4178 -0.5561
vn -0.7293 0.4774 -0.4901
vn -0.3565 0.2897 -0.8882
vn -0.7300 0.4763 -0.4901
vn -0.8284 -0.0759 -0.5549
vn 0.9997 0.0157 -0.0191
vn 0.9993 0.0226 -0.0288
vn -0.3573 0.2877 -0.8886
vn 0.2821 0.4349 -0.8552
vn -0.8408 0.0642 0.5375
vn 0.8220 0.0930 0.5618
vn 0.1639 -0.7807 0.6031
vn 0.2446 -0.3715 0.8956
vn -0.3388 -0.3131 0.8872
vn -0.7975 -0.2720 0.5385
vn -0.3123 -0.0234 -0.9497
vn 0.3077 0.1976 -0.9307
vn 0.5393 0.7562 0.3707
vn 0.1786 0.8313 0.5263
vn 0.3040 0.1340 0.9432
vn 0.8225 0.0938 0.5610
vn 0.9990 0.0363 0.0265
vn -0.7007 0.7134 -0.0121
vn 0.4784 -0.7963 -0.3703
vn 0.6011 -0.7991 -0.0024
vn -0.8232 -0.0690 -0.5635
vn 0.3139 -0.0308 -0.9490
vn -0.9672 -0.2540 -0.0045
vn -0.8264 -0.0131 -0.5630
vn 0.8228 0.0590 0.5653
vt 0.062652 0.389064
vt 0.093082 0.357104
vt 0.093082 0.389064
vt 0.062652 0.517244
vt 0.086962 0.482394
vt 0.062652 0.484095
vt 0.144262 0.452984
vt 0.252596 0.420174
vt 0.252596 0.452984
vt 0.093082 0.517244
vt 0.093082 0.452984
vt 0.062652 0.420174
vt 0.093082 0.420174
vt 0.030862 0.389064
vt 0.046726 0.357104
vt 0.030862 0.357104
vt 0.046726 0.389064
vt 0.030862 0.420174
vt 0.224109 0.420174
vt 0.224109 0.452984
vt 0.018792 0.484095
vt 0.030862 0.452984
vt 0.030862 0.484095
vt 0.133372 0.452984
vt 0.133372 0.484095
vt 0.252596 0.389064
vt 0.018792 0.389064
vt 0.144262 0.389064
vt 0.252596 0.357104
vt 0.083902 0.420174
vt 0.133372 0.420174
vt 0.046726 0.420174
vt 0.046726 0.484095
vt 0.030862 0.517244
vt 0.078462 0.452984
vt 0.133372 0.357104
vt 0.018792 0.517244
vt 0.144262 0.420174
vt 0.046726 0.452984
vt 0.252596 0.484095
vt 0.224109 0.484095
vt 0.018792 0.420174
vt 0.144262 0.357104
vt 0.224109 0.389064
vt 0.144262 0.484095
vt 0.252596 0.517244
vt 0.018792 0.452984
vt 0.082202 0.389064
vt 0.133372 0.389064
vt 0.133372 0.517244
vt 0.062652 0.452984
vt 0.093082 0.484095
vt 0.144262 0.517244
vt 0.062652 0.357104
vt 0.046726 0.517244
vt 0.018792 0.357104
s 1
g off
g Brazo_izq_disparo.001_Zero.009
usemtl Zero.009
f 12/1/1 29/2/2 32/3/3
f 7/4/4 47/5/5 51/6/6
s 2
f 52/7/7 13/8/8 63/9/9
s 1
f 8/6/10 6/10/11 7/4/4
f 60/11/12 13/12/13 33/13/14
s 3
f 18/14/15 16/15/16 17/16/17
f 11/17/18 42/18/19 21/14/20
s 2
f 35/19/21 39/7/22 38/20/23
s 3
f 30/21/24 43/22/25 3/23/26
s 4
f 44/24/27 47/5/28 49/25/29
s 1
f 13/12/13 32/3/3 33/13/14
s 2
f 25/26/30 35/19/21 26/8/31
s 3
f 17/16/17 57/27/32 18/14/15
f 54/18/33 19/17/34 18/14/15
s 2
f 11/28/35 50/29/36 12/26/37
s 4
f 23/30/38 44/24/27 45/31/39
s 3
f 14/32/40 43/22/25 42/18/19
f 4/33/41 2/34/42 3/23/26
s 1
f 46/35/43 51/6/6 47/5/5
s 4
f 28/36/44 32/3/45 29/2/46
s 3
f 31/37/47 3/23/26 2/34/42
s 2
f 14/38/48 12/26/37 13/8/8
s 4
f 62/24/49 33/13/50 61/31/51
s 3
f 10/23/52 39/39/53 55/22/54
s 2
f 51/40/55 38/20/23 37/41/56
s 3
f 18/14/15 58/42/57 54/18/33
s 2
f 16/43/58 36/44/59 50/29/36
s 3
f 16/15/16 21/14/20 17/16/17
s 2
f 38/20/23 9/45/60 37/41/56
f 50/29/36 36/44/59 25/26/30
f 63/9/9 4/45/61 52/7/7
f 51/40/55 37/41/56 7/46/62
s 3
f 55/22/54 34/32/63 54/18/33
f 54/18/33 40/47/64 55/22/54
f 55/22/54 56/21/65 10/23/52
s 1
f 25/1/66 23/30/67 24/48/68
s 4
f 29/2/46 27/49/69 28/36/44
f 49/25/29 6/10/70 48/50/71
s 1
f 46/35/43 26/12/72 53/51/73
s 4
f 64/49/74 33/13/50 32/3/45
f 5/52/75 48/50/71 6/10/70
s 3
f 52/39/76 3/23/26 43/22/25
f 15/47/77 42/18/19 43/22/25
f 41/42/78 21/14/20 42/18/19
f 22/27/79 17/16/17 21/14/20
s 2
f 36/44/59 34/38/80 35/19/21
f 53/9/81 35/19/21 38/20/23
s 3
f 10/23/52 31/37/47 2/34/42
s 1
f 5/52/82 63/51/83 60/11/12
s 4
f 60/11/84 59/25/85 5/52/75
s 2
f 4/45/61 7/46/62 1/53/86
s 1
f 50/54/87 24/48/68 29/2/2
s 3
f 9/33/88 2/34/42 1/55/89
s 2
f 37/41/56 1/53/86 7/46/62
s 4
f 24/48/90 45/31/39 27/49/69
s 1
f 12/1/1 50/54/87 29/2/2
f 7/4/4 6/10/11 47/5/5
s 2
f 52/7/7 14/38/48 13/8/8
s 1
f 8/6/10 5/52/82 6/10/11
f 60/11/12 63/51/83 13/12/13
s 3
f 18/14/15 19/17/34 16/15/16
f 11/17/18 14/32/40 42/18/19
s 2
f 35/19/21 34/38/80 39/7/22
s 3
f 30/21/24 15/47/77 43/22/25
s 4
f 44/24/27 46/35/91 47/5/28
s 1
f 13/12/13 12/1/1 32/3/3
s 2
f 25/26/30 36/44/59 35/19/21
s 3
f 17/16/17 20/56/92 57/27/32
f 54/18/33 34/32/63 19/17/34
s 2
f 11/28/35 16/43/58 50/29/36
s 4
f 23/30/38 46/35/91 44/24/27
s 3
f 14/32/40 52/39/76 43/22/25
f 4/33/41 1/55/89 2/34/42
s 1
f 46/35/43 53/51/73 51/6/6
s 4
f 28/36/44 64/49/74 32/3/45
s 3
f 31/37/47 30/21/24 3/23/26
s 2
f 14/38/48 11/28/35 12/26/37
s 4
f 62/24/49 60/11/84 33/13/50
s 3
f 10/23/52 9/33/88 39/39/53
s 2
f 51/40/55 53/9/81 38/20/23
s 3
f 18/14/15 57/27/32 58/42/57
s 2
f 16/43/58 19/28/93 36/44/59
s 3
f 16/15/16 11/17/18 21/14/20
s 2
f 38/20/23 39/7/22 9/45/60
f 63/9/9 8/40/94 4/45/61
s 3
f 55/22/54 39/39/53 34/32/63
f 54/18/33 58/42/57 40/47/64
f 55/22/54 40/47/64 56/21/65
s 1
f 25/1/66 26/12/72 23/30/67
s 4
f 29/2/46 24/48/90 27/49/69
f 49/25/29 47/5/28 6/10/70
s 1
f 46/35/43 23/30/67 26/12/72
s 4
f 64/49/74 61/31/51 33/13/50
f 5/52/75 59/25/85 48/50/71
s 3
f 52/39/76 4/33/41 3/23/26
f 15/47/77 41/42/78 42/18/19
f 41/42/78 22/27/79 21/14/20
f 22/27/79 20/56/92 17/16/17
s 2
f 36/44/59 19/28/93 34/38/80
f 53/9/81 26/8/31 35/19/21
s 3
f 10/23/52 56/21/65 31/37/47
s 1
f 5/52/82 8/6/10 63/51/83
s 4
f 60/11/84 62/24/49 59/25/85
s 2
f 4/45/61 8/40/94 7/46/62
s 1
f 50/54/87 25/1/66 24/48/68
s 3
f 9/33/88 10/23/52 2/34/42
s 2
f 37/41/56 9/45/60 1/53/86
s 4
f 24/48/90 23/30/38 45/31/39
