# Blender 5.0.1
# www.blender.org
mtllib zero_hombroIzq.mtl
o Hombro_izq
v 0.171524 -0.192715 0.142480
v 0.248884 -0.182627 0.114887
v 0.233919 -0.117712 0.184402
v 0.154011 -0.131095 0.197665
v 0.349034 -0.094155 0.012260
v 0.313949 -0.158255 0.012275
v 0.311029 -0.136560 -0.065680
v 0.347211 -0.068867 -0.046283
v 0.002676 -0.180712 0.012435
v 0.026289 -0.182267 0.089602
v 0.209241 0.177643 0.014387
v 0.129244 0.185855 0.014105
v 0.131629 0.157798 0.119010
v 0.209696 0.151930 0.112025
v 0.240916 -0.198525 0.094685
v 0.268206 -0.200825 0.012357
v 0.233224 -0.116995 -0.158490
v 0.251136 -0.177902 -0.093060
v 0.171291 -0.192252 -0.116478
v 0.153934 -0.130209 -0.171530
v 0.089854 -0.186555 0.139350
v 0.240279 -0.198220 -0.069408
v 0.052316 0.163935 0.014785
v 0.053946 0.138133 -0.083805
v -0.013254 0.090168 -0.062203
v -0.015071 0.110453 0.013622
v 0.005946 -0.114382 -0.117445
v -0.002536 -0.036425 -0.136223
v 0.065714 -0.028192 -0.182520
v 0.073959 -0.127945 -0.157560
v -0.008746 0.038903 -0.114710
v -0.053231 0.015933 -0.040665
v -0.013431 0.089895 0.088877
v 0.053954 0.137950 0.110757
v 0.059356 0.069583 0.181212
v 0.136254 0.083358 0.195207
v 0.217216 0.080450 0.183750
v 0.288624 0.063065 0.145397
v 0.282896 0.119228 0.090092
v 0.288504 0.063798 -0.118385
v 0.283219 0.119990 -0.061415
v 0.338139 0.048223 -0.045643
v 0.065999 -0.028517 0.209275
v 0.145824 -0.024485 0.225722
v 0.225539 -0.018575 -0.184285
v 0.294726 -0.014430 -0.139805
v 0.300651 -0.089842 -0.119688
v 0.026869 -0.182025 -0.064373
v 0.011094 -0.167770 -0.065543
v -0.035524 -0.117152 -0.042395
v 0.090386 -0.186207 -0.113395
v -0.048096 -0.040225 -0.067178
v -0.063906 -0.041180 0.014842
v -0.031586 -0.139270 0.012912
v -0.047444 0.057595 0.014435
v -0.007169 0.037733 0.143830
v -0.052281 0.015825 0.070805
v 0.131961 0.157533 -0.092880
v 0.338714 0.047623 0.071165
v 0.145641 -0.023980 -0.199078
v 0.136239 0.084828 -0.167678
v 0.216944 0.082350 -0.156023
v 0.341534 -0.011092 -0.072868
v 0.010589 -0.168295 0.090337
v 0.005439 -0.114837 0.143222
v -0.035344 -0.117135 0.069652
v 0.311616 -0.137002 0.090462
v 0.347774 -0.068987 0.070912
v 0.301601 -0.090232 0.145037
v 0.359759 -0.009812 0.012282
v -0.047111 -0.039235 0.096340
v 0.342331 -0.011032 0.097685
v 0.334466 0.075895 0.013637
v 0.058176 0.070908 -0.153183
v 0.211256 0.152455 -0.083430
v 0.280076 0.140568 0.015422
v 0.226326 -0.019302 0.210640
v 0.073401 -0.128747 0.183475
v -0.001249 -0.036532 0.164140
v 0.295779 -0.014437 0.165430
vn 0.6742 -0.7385 -0.0079
vn 0.7404 -0.5637 0.3662
vn 0.5236 -0.6693 0.5271
vn -0.7168 0.5804 -0.3865
vn -0.9304 0.3664 0.0038
vn -0.7261 0.6876 0.0006
vn -0.6779 -0.6020 0.4220
vn -0.8598 -0.5107 -0.0011
vn -0.7542 -0.6567 -0.0043
vn -0.6891 -0.0638 0.7219
vn -0.3446 -0.4340 0.8324
vn -0.3698 -0.0191 0.9289
vn 0.7426 -0.5584 -0.3697
vn 0.7764 -0.6302 0.0002
vn -0.7031 0.3250 0.6325
vn -0.4073 0.4427 0.7988
vn 0.2865 0.8372 0.4658
vn -0.0488 0.5014 0.8638
vn 0.3164 0.4947 0.8094
vn -0.3245 -0.6464 -0.6905
vn -0.6517 -0.3957 -0.6471
vn -0.3443 -0.4303 -0.8344
vn 0.3119 0.5029 -0.8061
vn -0.0768 0.8694 -0.4880
vn 0.2894 0.8408 -0.4575
vn -0.6444 -0.4153 0.6421
vn -0.3270 -0.6494 0.6866
vn 0.9356 -0.3531 -0.0048
vn -0.0884 0.9961 -0.0002
vn -0.0793 0.8645 0.4963
vn 0.4959 -0.7581 -0.4235
vn 0.5300 -0.6807 -0.5058
vn 0.1270 -0.6757 -0.7262
vn 0.3984 -0.3909 -0.8298
vn 0.0111 -0.4368 0.8995
vn 0.1270 -0.6789 0.7231
vn -0.0094 0.0077 0.9999
vn -0.7173 0.2856 -0.6356
vn -0.3746 -0.0112 -0.9271
vn -0.6981 -0.0550 -0.7139
vn -0.9361 0.1706 -0.3075
vn -0.8998 -0.0678 0.4311
vn -0.4376 0.7795 -0.4482
vn 0.3549 0.0419 -0.9340
vn -0.0044 -0.4508 -0.8926
vn -0.0116 0.0159 -0.9998
vn 0.2821 0.9594 0.0020
vn 0.6075 0.7084 -0.3594
vn 0.8558 0.5173 0.0013
vn 0.8618 0.3936 -0.3199
vn -0.4188 0.4595 -0.7832
vn 0.6307 0.4229 -0.6507
vn -0.4440 0.8960 0.0096
vn -0.4386 0.7742 0.4563
vn 0.8951 0.0937 -0.4359
vn 0.6728 0.0512 -0.7381
vn 0.7208 -0.2771 -0.6354
vn 0.9328 -0.1703 -0.3176
vn 0.9002 0.0486 0.4328
vn 0.6960 -0.2941 0.6551
vn 0.9196 -0.2306 0.3182
vn -0.7006 -0.6092 -0.3715
vn -0.8689 -0.3848 -0.3114
vn -0.6016 -0.6978 -0.3889
vn -0.9020 -0.0968 -0.4208
vn -0.9945 -0.1048 0.0059
vn -0.7156 0.5931 0.3690
vn -0.9186 0.2405 0.3135
vn 0.6075 0.6965 0.3818
vn 0.6017 0.7986 0.0155
vn 0.6331 0.4188 0.6510
vn 0.8867 0.3236 0.3302
vn 0.6823 0.0546 0.7290
vn 0.4047 -0.3999 0.8224
vn -0.0490 0.5218 -0.8517
vn -0.8946 -0.3710 0.2492
vn -0.6041 -0.6989 0.3828
vn 0.4896 -0.7686 0.4117
vn 0.9967 0.0812 -0.0046
vn 0.3634 0.0267 0.9312
vt 0.585744 0.020046
vt 0.555746 0.068934
vt 0.534003 0.040460
vt 0.957766 0.297969
vt 0.971571 0.281468
vt 0.977071 0.297969
vt 0.873661 0.294625
vt 0.890792 0.274781
vt 0.870206 0.278125
vt 0.915455 0.297969
vt 0.887988 0.316087
vt 0.915455 0.316087
vt 0.617328 0.067702
vt 0.586359 0.054218
vt 0.937599 0.297969
vt 0.938138 0.316087
vt 0.960894 0.352864
vt 0.938677 0.334745
vt 0.938138 0.352864
vt 0.865788 0.316087
vt 0.892302 0.297969
vt 0.962620 0.334745
vt 0.586924 0.088541
vt 0.981170 0.334745
vt 0.854788 0.349521
vt 0.859641 0.352864
vt 0.844755 0.354597
vt 0.861043 0.334745
vt 0.885723 0.352864
vt 0.885723 0.334745
vt 0.915455 0.334745
vt 0.946873 0.282654
vt 0.915455 0.284272
vt 0.960894 0.316087
vt 0.915455 0.352864
vt 0.589993 0.213283
vt 0.617174 0.171218
vt 0.634272 0.200361
vt 0.587835 0.149324
vt 0.607888 0.139234
vt 0.638630 0.148893
vt 0.980091 0.316087
vt 0.617193 0.118693
vt 0.646906 0.118773
vt 0.672298 0.073216
vt 0.682479 0.121209
vt 0.639293 0.089144
vt 0.638698 0.041189
vt 0.607598 0.098596
vt 0.557898 0.120031
vt 0.534364 0.091309
vt 0.566632 0.099474
vt 0.896724 0.281468
vt 0.868592 0.298724
vt 0.915455 0.267555
vt 0.559128 0.172056
vt 0.587815 0.179658
vt 0.507985 0.172071
vt 0.537046 0.151080
vt 0.567919 0.139899
vt 0.527944 0.121458
vt 0.500440 0.076472
vt 0.587561 0.119095
vt 0.667904 0.168384
vt 0.543849 0.204139
vt 0.491843 0.125229
vt 0.980091 0.352864
s 1
g off
g Hombro_izq_Zero.009
usemtl Zero.009
f 16/1/1 67/2/2 2/3/3
f 25/4/4 55/5/5 26/6/6
f 64/7/7 54/8/8 9/9/9
f 79/10/10 78/11/11 43/12/12
f 16/1/1 7/13/13 6/14/14
f 56/15/15 43/12/12 35/16/16
f 14/17/17 36/18/18 37/19/19
f 51/20/20 27/21/21 30/11/22
f 62/19/23 58/22/24 75/17/25
f 65/21/26 21/20/27 78/11/11
f 7/13/13 5/23/28 6/14/14
f 14/17/17 12/24/29 13/22/30
f 22/25/31 18/26/32 16/27/1
f 22/25/31 19/28/33 18/26/32
f 19/28/33 17/29/34 18/26/32
f 4/30/35 21/20/27 1/28/36
f 36/18/18 43/12/12 44/31/37
f 31/15/38 29/12/39 28/10/40
f 31/15/38 32/32/41 25/4/4
f 71/33/42 65/21/26 79/10/10
f 26/6/6 24/34/43 25/4/4
f 24/34/43 12/24/29 58/22/24
f 45/35/44 20/30/45 60/31/46
f 11/36/47 41/37/48 75/38/25
f 41/37/48 73/39/49 42/40/50
f 58/22/24 74/16/51 24/34/43
f 40/41/52 41/37/48 42/40/50
f 13/22/30 23/42/53 34/34/54
f 63/43/55 40/41/52 42/40/50
f 12/24/29 75/17/25 58/22/24
f 46/44/56 17/45/34 45/46/44
f 63/43/55 47/47/57 46/44/56
f 47/47/57 18/48/32 17/45/34
f 47/47/57 8/49/58 7/13/13
f 72/50/59 69/51/60 68/52/61
f 49/7/62 54/8/8 50/53/63
f 48/54/64 9/9/9 49/7/62
f 49/7/62 50/53/63 27/21/21
f 31/15/38 52/33/65 32/32/41
f 48/54/64 49/7/62 51/20/20
f 52/33/65 50/53/63 53/55/66
f 32/32/41 52/33/65 53/55/66
f 50/53/63 54/8/8 53/55/66
f 55/5/5 32/32/41 53/55/66
f 52/33/65 27/21/21 50/53/63
f 56/15/15 33/4/67 57/32/68
f 35/16/16 33/4/67 56/15/15
f 34/34/54 26/6/6 33/4/67
f 44/31/37 78/11/11 4/30/35
f 39/56/69 73/39/49 76/57/70
f 13/22/30 35/16/16 36/18/18
f 39/56/69 37/58/19 38/59/71
f 38/59/71 59/60/72 39/56/69
f 55/5/5 33/4/67 26/6/6
f 80/61/73 3/62/74 69/51/60
f 56/15/15 71/33/42 79/10/10
f 61/18/75 29/12/39 74/16/51
f 64/7/7 65/21/26 66/53/76
f 69/51/60 2/3/3 67/2/2
f 67/2/2 68/52/61 69/51/60
f 10/54/77 64/7/7 9/9/9
f 10/54/77 21/20/27 64/7/7
f 15/25/78 2/26/3 1/28/36
f 15/25/78 16/27/1 2/26/3
f 67/2/2 5/23/28 68/52/61
f 5/23/28 70/63/79 68/52/61
f 5/23/28 8/49/58 70/63/79
f 8/49/58 63/43/55 70/63/79
f 63/43/55 42/40/50 70/63/79
f 66/53/76 53/55/66 54/8/8
f 71/33/42 53/55/66 66/53/76
f 57/32/68 53/55/66 71/33/42
f 55/5/5 53/55/66 57/32/68
f 68/52/61 70/63/79 72/50/59
f 72/50/59 70/63/79 59/60/72
f 59/60/72 70/63/79 73/39/49
f 42/40/50 73/39/49 70/63/79
f 25/4/4 74/16/51 31/15/38
f 30/11/22 60/31/46 20/30/45
f 37/19/19 44/31/37 77/35/80
f 41/37/48 62/64/23 75/38/25
f 38/59/71 72/50/59 59/60/72
f 77/35/80 4/30/35 3/29/74
f 14/65/17 76/57/70 11/36/47
f 62/19/23 60/31/46 61/18/75
f 38/59/71 77/66/80 80/61/73
f 40/41/52 45/46/44 62/64/23
f 30/11/22 28/10/40 29/12/39
f 20/30/45 51/20/20 30/11/22
f 3/29/74 1/28/36 2/26/3
f 16/1/1 6/14/14 67/2/2
f 25/4/4 32/32/41 55/5/5
f 64/7/7 66/53/76 54/8/8
f 79/10/10 65/21/26 78/11/11
f 16/1/1 18/48/32 7/13/13
f 56/15/15 79/10/10 43/12/12
f 14/17/17 13/22/30 36/18/18
f 51/20/20 49/7/62 27/21/21
f 62/19/23 61/18/75 58/22/24
f 65/21/26 64/7/7 21/20/27
f 7/13/13 8/49/58 5/23/28
f 14/17/17 11/67/47 12/24/29
f 19/28/33 20/30/45 17/29/34
f 4/30/35 78/11/11 21/20/27
f 36/18/18 35/16/16 43/12/12
f 31/15/38 74/16/51 29/12/39
f 71/33/42 66/53/76 65/21/26
f 26/6/6 23/42/53 24/34/43
f 24/34/43 23/42/53 12/24/29
f 45/35/44 17/29/34 20/30/45
f 11/36/47 76/57/70 41/37/48
f 41/37/48 76/57/70 73/39/49
f 58/22/24 61/18/75 74/16/51
f 13/22/30 12/24/29 23/42/53
f 63/43/55 46/44/56 40/41/52
f 12/24/29 11/67/47 75/17/25
f 46/44/56 47/47/57 17/45/34
f 63/43/55 8/49/58 47/47/57
f 47/47/57 7/13/13 18/48/32
f 72/50/59 80/61/73 69/51/60
f 49/7/62 9/9/9 54/8/8
f 31/15/38 28/10/40 52/33/65
f 52/33/65 28/10/40 27/21/21
f 35/16/16 34/34/54 33/4/67
f 34/34/54 23/42/53 26/6/6
f 44/31/37 43/12/12 78/11/11
f 39/56/69 59/60/72 73/39/49
f 13/22/30 34/34/54 35/16/16
f 39/56/69 14/65/17 37/58/19
f 55/5/5 57/32/68 33/4/67
f 80/61/73 77/66/80 3/62/74
f 56/15/15 57/32/68 71/33/42
f 61/18/75 60/31/46 29/12/39
f 69/51/60 3/62/74 2/3/3
f 67/2/2 6/14/14 5/23/28
f 25/4/4 24/34/43 74/16/51
f 30/11/22 29/12/39 60/31/46
f 37/19/19 36/18/18 44/31/37
f 41/37/48 40/41/52 62/64/23
f 38/59/71 80/61/73 72/50/59
f 77/35/80 44/31/37 4/30/35
f 14/65/17 39/56/69 76/57/70
f 62/19/23 45/35/44 60/31/46
f 38/59/71 37/58/19 77/66/80
f 40/41/52 46/44/56 45/46/44
f 30/11/22 27/21/21 28/10/40
f 20/30/45 19/28/33 51/20/20
f 3/29/74 4/30/35 1/28/36
